<?xml version="1.0" encoding="UTF-8" standalone="no"?>
<!-- Created with Inkscape (http://www.inkscape.org/) -->

<svg
   version="1.1"
   id="svg1"
   width="585.82666"
   height="188.97333"
   viewBox="0 0 585.82666 188.97333"
   sodipodi:docname="CDI_Logo_cmyk.svg"
   inkscape:version="1.4.3 (0d15f75, 2025-12-25)"
   xmlns:inkscape="http://www.inkscape.org/namespaces/inkscape"
   xmlns:sodipodi="http://sodipodi.sourceforge.net/DTD/sodipodi-0.dtd"
   xmlns="http://www.w3.org/2000/svg"
   xmlns:svg="http://www.w3.org/2000/svg">
  <defs
     id="defs1" />
  <sodipodi:namedview
     id="namedview1"
     pagecolor="#ffffff"
     bordercolor="#000000"
     borderopacity="0.25"
     inkscape:showpageshadow="2"
     inkscape:pageopacity="0.0"
     inkscape:pagecheckerboard="0"
     inkscape:deskcolor="#d1d1d1"
     inkscape:zoom="0.86088117"
     inkscape:cx="84.796836"
     inkscape:cy="224.1889"
     inkscape:window-width="1773"
     inkscape:window-height="929"
     inkscape:window-x="0"
     inkscape:window-y="31"
     inkscape:window-maximized="0"
     inkscape:current-layer="g1">
    <inkscape:page
       x="0"
       y="0"
       inkscape:label="1"
       id="page1"
       width="585.82666"
       height="188.97333"
       margin="0"
       bleed="0" />
  </sodipodi:namedview>
  <g
     id="g1"
     inkscape:groupmode="layer"
     inkscape:label="1">
    <path
       id="path1"
       d="m 2110.86,30.6602 h 135.95 V 1383.96 l -135.95,0.13 V 30.6602"
       style="fill:#0b3b6a;fill-opacity:1;fill-rule:nonzero;stroke:none"
       transform="matrix(0.13333333,0,0,-0.13333333,0,188.97333)" />
    <path
       id="path2"
       d="m 1793.67,706.363 c 0,558.017 -160.3,677.727 -432.21,677.727 h -357.12 v -121.75 h 109.57 280.02 c 119.72,0 257.7,-40.58 257.7,-555.977 0,-511.343 -125.81,-553.953 -290.17,-553.953 H 1113.91 1004.34 V 30.6602 h 361.18 c 411.91,0 428.15,377.4178 428.15,675.7028"
       style="fill:#0b3b6a;fill-opacity:1;fill-rule:nonzero;stroke:none"
       transform="matrix(0.13333333,0,0,-0.13333333,0,188.97333)" />
    <path
       id="path3"
       d="m 1004.12,646.668 h 443.17 V 768.086 H 1004.12 V 646.668"
       style="fill:#33bdf2;fill-opacity:1;fill-rule:nonzero;stroke:none"
       transform="matrix(0.13333333,0,0,-0.13333333,0,188.97333)" />
    <path
       id="path4"
       d="m 1004.12,837.879 h 443.17 V 959.297 H 1004.12 V 837.879"
       style="fill:#86162c;fill-opacity:1;fill-rule:nonzero;stroke:none"
       transform="matrix(0.13333333,0,0,-0.13333333,0,188.97333)" />
    <path
       id="path5"
       d="m 1004.12,1029.09 h 443.17 v 121.42 h -443.17 v -121.42"
       style="fill:#ba7d10;fill-opacity:1;fill-rule:nonzero;stroke:none"
       transform="matrix(0.13333333,0,0,-0.13333333,0,188.97333)" />
    <path
       id="path6"
       d="m 1004.12,455.457 h 443.17 V 576.875 H 1004.12 V 455.457"
       style="fill:#00a880;fill-opacity:1;fill-rule:nonzero;stroke:none"
       transform="matrix(0.13333333,0,0,-0.13333333,0,188.97333)" />
    <path
       id="path7"
       d="m 1004.12,264.25 h 443.17 V 385.672 H 1004.12 V 264.25"
       style="fill:#96a0a5;fill-opacity:1;fill-rule:nonzero;stroke:none"
       transform="matrix(0.13333333,0,0,-0.13333333,0,188.97333)" />
    <path
       id="path8"
       d="M 686.961,312.07 C 636.297,228.98 553.211,141.84 447.828,141.84 c -247.238,0 -263.449,389.101 -263.449,565.41 0,178.336 16.211,567.43 263.449,567.43 103.356,0 172.258,-74.98 214.817,-160.09 l 115.511,68.9 c -70.929,129.7 -176.308,218.87 -330.328,218.87 -352.6171,0 -405.3085,-425.579 -405.3085,-695.11 0,-267.504 52.6914,-693.0781 405.3085,-693.0781 154.02,0 271.559,93.2191 350.594,220.8871 L 686.961,312.07"
       style="fill:#0b3b6a;fill-opacity:1;fill-rule:nonzero;stroke:none"
       transform="matrix(0.13333333,0,0,-0.13333333,0,188.97333)" />
    <path
       id="path9"
       d="m 2587.99,30.75 h 63.45 v 17.7695 h -21.96 V 167.512 h 21.96 v 17.758 h -63.45 v -17.758 h 21.66 V 48.5195 h -21.66 z m 115.69,0 h 19.84 v 89.27 l -1.78,40.371 0.6,0.589 59.95,-130.23 h 24.59 v 154.52 h -19.84 V 95.7188 l 1.78,-40.0782 -0.6,-0.6015 -59.95,130.2309 h -24.59 z m 158.26,0 h 19.84 v 72.68 h 64.97 v 17.769 h -64.97 v 46.313 h 77.43 v 17.758 h -97.27 z m 181.68,157.191 c -25.53,0 -54.86,-18.351 -54.86,-80.07 0,-62.0194 29.93,-79.7929 54.86,-79.7929 53.97,0 54.86,67.3203 54.86,79.7929 0,62.309 -30.23,80.07 -54.86,80.07 z m 0,-18.652 c 29.98,0 34.13,-38.578 34.13,-61.418 0,-22.5624 -4.15,-61.1327 -34.13,-61.1327 -29.98,0 -34.13,38.5703 -34.13,61.1327 0,22.84 4.15,61.418 34.13,61.418 z m 121.22,-54.617 v 52.84 h 32.06 c 17.81,0 26.12,-10.391 26.12,-24.34 0,-17.524 -12.76,-28.5 -32.06,-28.5 z M 3145,30.75 h 19.84 v 66.1602 h 28.79 l 39.46,-70.0118 17.18,10.3829 -37.94,62.5898 c 18.68,5.6169 31.42,24.3009 31.42,43.3009 0,29.969 -20.43,42.098 -46.26,42.098 H 3145 Z m 198.59,43.6094 34.72,81.5816 h 0.6 l 3.85,-125.191 h 21.03 l -6.23,154.52 h -26.07 l -27.9,-67 -27.9,67 h -26.08 l -6.23,-154.52 h 21.03 l 3.86,125.191 h 0.59 z m 181.68,-1.4805 14.24,-45.9805 19.57,7.1211 -48.63,151.2505 h -25.51 l -48.63,-151.2505 19.57,-7.1211 14.53,45.9805 z m -5.63,17.7617 h -43.89 l 21.94,71.5314 z M 3617.56,30.75 h 19.83 v 136.762 h 41.83 v 17.758 h -104.38 v -17.758 h 42.72 z m 113.02,0 h 63.44 v 17.7695 h -21.95 V 167.512 h 21.95 v 17.758 h -63.44 v -17.758 h 21.65 V 48.5195 h -21.65 z m 162.6,157.191 c -25.53,0 -54.86,-18.351 -54.86,-80.07 0,-62.0194 29.93,-79.7929 54.86,-79.7929 53.97,0 54.86,67.3203 54.86,79.7929 0,62.309 -30.22,80.07 -54.86,80.07 z m 0,-18.652 c 29.98,0 34.13,-38.578 34.13,-61.418 0,-22.5624 -4.15,-61.1327 -34.13,-61.1327 -29.98,0 -34.13,38.5703 -34.13,61.1327 0,22.84 4.15,61.418 34.13,61.418 z M 3991.3,30.75 h 19.84 v 89.27 l -1.78,40.371 0.59,0.589 59.96,-130.23 h 24.59 v 154.52 h -19.84 V 95.7188 l 1.77,-40.0782 -0.59,-0.6015 -59.95,130.2309 H 3991.3 V 30.75"
       style="fill:#0b3b6a;fill-opacity:1;fill-rule:nonzero;stroke:none"
       transform="matrix(0.13333333,0,0,-0.13333333,0,188.97333)" />
    <path
       id="path10"
       d="m 2566.04,434.496 h 16.02 V 315.5 h -16.02 v -17.762 h 51.59 c 55.48,0 63.77,30.821 63.77,79.192 0,57.269 -19.84,75.328 -63.77,75.328 h -51.59 z m 35.86,0 h 20.48 c 24.63,0 38.29,-12.168 38.29,-59.644 0,-44.512 -11.58,-59.352 -37.7,-59.352 h -21.07 z m 193.72,-94.637 14.23,-45.98 19.57,7.121 -48.63,151.258 h -25.51 L 2706.65,301 l 19.57,-7.121 14.53,45.98 z m -5.64,17.77 h -43.89 l 21.95,71.527 z m 97.92,-59.891 h 19.84 v 136.758 h 41.82 v 17.762 h -104.38 v -17.762 h 42.72 z m 166.39,42.121 14.23,-45.98 19.58,7.121 -48.64,151.258 h -25.5 L 2965.32,301 l 19.57,-7.121 14.54,45.98 z m -5.64,17.77 h -43.89 l 21.95,71.527 z m 202.93,-34.117 c -6.23,-5.934 -15.13,-9.793 -23.74,-9.793 -15.74,0 -27.31,10.98 -27.31,26.711 0,13.648 8.01,20.179 18.4,27.3 z m -27.9,68.847 c -11.58,14.539 -16.03,22.84 -16.03,32.934 0,11.574 6.82,20.477 19,20.477 13.95,0 21.38,-9.497 21.38,-22.555 0,-12.754 -8.61,-19.586 -18.12,-26.406 z m -15.73,-10.39 c -14.83,-10.391 -28.15,-21.957 -28.15,-41.84 0,-26.41 21.02,-45.059 46.85,-45.059 13.66,0 25.23,5.032 35.59,13.032 l 10.67,-14.512 15.13,10.969 -12.17,16.91 c 8.9,12.16 13.95,27.293 15.73,42.133 l -19.58,3.847 c -0.89,-10.078 -2.97,-20.469 -8.6,-29.07 l -29.05,39.461 c 23.43,15.719 32.31,27.289 32.31,46.273 0,22.246 -15.99,40.309 -39.14,40.309 -23.74,0 -38.55,-16.582 -38.55,-40.309 0,-15.422 5.92,-24.625 14.51,-36.191 l 4.45,-5.953"
       style="fill:#0b3b6a;fill-opacity:1;fill-rule:nonzero;stroke:none"
       transform="matrix(0.13333333,0,0,-0.13333333,0,188.97333)" />
    <path
       id="path11"
       d="m 2594.78,648.641 v 52.839 h 32.06 c 17.81,0 26.12,-10.39 26.12,-24.339 0,-17.516 -12.77,-28.5 -32.06,-28.5 z m -19.84,-83.914 h 19.84 v 66.152 h 28.79 l 39.45,-70.012 17.19,10.387 -37.94,62.586 c 18.68,5.625 31.42,24.301 31.42,43.301 0,29.964 -20.44,42.101 -46.26,42.101 h -52.49 z m 147.13,0 h 96.38 v 17.761 h -76.54 v 54.918 h 63.19 v 17.762 h -63.19 v 46.312 h 76.54 v 17.762 h -96.38 z m 134.53,43.281 c 4.75,-27.598 22.81,-45.953 51.6,-45.953 28.5,0 48.93,16.582 48.93,45.953 0,16.023 -7.4,28.488 -21.32,36.203 l -32.95,14.539 c -11.88,5.344 -20.78,9.496 -20.78,24.035 0,13.949 12.46,20.477 25.23,20.477 16.92,0 24.93,-10.684 28.5,-25.817 l 18.95,5.637 c -6.22,24.027 -21.33,38.832 -47.15,38.832 -24.35,0 -45.37,-14.508 -45.37,-40.609 0,-29.082 21.32,-35.02 43.88,-44.512 15.14,-6.234 31.17,-10.98 31.17,-29.973 0,-17.211 -12.76,-26.113 -29.09,-26.113 -20.78,0 -29.97,13.949 -33.82,32.938 z m 149.57,-43.281 h 96.37 v 17.761 h -76.53 v 54.918 h 63.19 v 17.762 h -63.19 v 46.312 h 76.53 v 17.762 h -96.37 z m 221.12,42.125 14.24,-45.985 19.57,7.121 -48.63,151.254 h -25.51 l -48.63,-151.254 19.57,-7.121 14.53,45.985 z m -5.63,17.761 h -43.89 l 21.94,71.528 z m 99.51,24.028 v 52.839 h 32.06 c 17.81,0 26.12,-10.39 26.12,-24.339 0,-17.516 -12.76,-28.5 -32.06,-28.5 z m -19.84,-83.914 h 19.84 v 66.152 h 28.79 l 39.46,-70.012 17.19,10.387 -37.94,62.586 c 18.68,5.625 31.41,24.301 31.41,43.301 0,29.964 -20.43,42.101 -46.26,42.101 h -52.49 z m 230.76,40.906 c -9.2,-13.945 -18.4,-24.926 -36.49,-24.926 -31.45,0 -37.08,37.391 -37.08,61.426 0,23.738 6.23,61.129 37.08,61.129 15.13,0 24.03,-10.981 30.55,-23.442 l 18.1,9.2 c -10.98,20.46 -24.92,32.894 -48.95,32.894 -24.92,0 -57.51,-18.355 -57.51,-80.078 0,-38.277 14.21,-79.781 59.29,-79.781 24.03,0 38.86,12.73 51.32,32.304 z m 56.84,-40.906 h 19.84 v 72.679 h 61.14 v -72.679 h 19.84 v 154.515 h -19.84 v -64.074 h -61.14 v 64.074 h -19.84 V 564.727"
       style="fill:#0b3b6a;fill-opacity:1;fill-rule:nonzero;stroke:none"
       transform="matrix(0.13333333,0,0,-0.13333333,0,188.97333)" />
    <path
       id="path12"
       d="m 2658.85,872.617 c -9.19,-13.945 -18.39,-24.926 -36.49,-24.926 -31.44,0 -37.08,37.391 -37.08,61.426 0,23.742 6.23,61.129 37.08,61.129 15.13,0 24.03,-10.976 30.56,-23.441 l 18.1,9.199 c -10.98,20.461 -24.92,32.894 -48.95,32.894 -24.92,0 -57.52,-18.355 -57.52,-80.078 0,-38.277 14.22,-79.781 59.3,-79.781 24.03,0 38.86,12.734 51.32,32.305 z m 106.37,116.281 c -25.53,0 -54.86,-18.355 -54.86,-80.078 0,-62.015 29.93,-79.781 54.86,-79.781 53.97,0 54.86,67.32 54.86,79.781 0,62.317 -30.23,80.078 -54.86,80.078 z m 0,-18.652 c 29.98,0 34.13,-38.574 34.13,-61.426 0,-22.55 -4.15,-61.129 -34.13,-61.129 -29.98,0 -34.14,38.579 -34.14,61.129 0,22.852 4.16,61.426 34.14,61.426 z m 152.27,-94.926 34.72,81.578 h 0.6 l 3.85,-125.187 h 21.03 l -6.23,154.519 h -26.07 l -27.9,-67.007 -27.9,67.007 h -26.08 l -6.23,-154.519 h 21.03 l 3.86,125.187 h 0.59 z m 127.39,22.84 h 33.24 c 21.67,0 44.77,13.32 44.77,45.965 0,22.563 -13.91,42.105 -49.81,42.105 h -48.04 V 831.711 h 19.84 z m 0,17.762 v 52.547 h 27.31 c 16.32,0 29.98,-4.75 29.98,-25.828 0,-17.813 -10.39,-26.719 -29.98,-26.719 z m 121.66,-84.211 h 96.37 v 17.762 h -76.53 v 54.918 h 63.18 v 17.761 h -63.18 v 46.317 h 76.53 v 17.761 h -96.37 z m 179.47,0 h 19.84 v 136.758 h 41.82 v 17.761 h -104.38 v -17.761 h 42.72 z m 107.68,0 h 96.37 v 17.762 h -76.53 v 54.918 h 63.18 v 17.761 h -63.18 v 46.317 h 76.53 v 17.761 h -96.37 z m 137.05,0 h 19.84 v 89.269 l -1.78,40.368 0.59,0.593 59.96,-130.23 h 24.59 V 986.23 h -19.84 v -89.55 l 1.77,-40.086 -0.59,-0.594 -59.95,130.23 h -24.59 z m 240.6,40.906 c -9.19,-13.945 -18.39,-24.926 -36.49,-24.926 -31.44,0 -37.08,37.391 -37.08,61.426 0,23.742 6.23,61.129 37.08,61.129 15.13,0 24.03,-10.976 30.56,-23.441 l 18.09,9.199 c -10.97,20.461 -24.91,32.894 -48.94,32.894 -24.92,0 -57.52,-18.355 -57.52,-80.078 0,-38.277 14.22,-79.781 59.3,-79.781 24.03,0 38.86,12.734 51.32,32.305 z m 60.7,-40.906 h 96.38 v 17.762 h -76.54 v 54.918 h 63.19 v 17.761 h -63.19 v 46.317 h 76.54 v 17.761 h -96.38 z m 233.17,0 h 63.44 v 17.762 h -21.95 v 118.996 h 21.95 v 17.761 h -63.44 v -17.761 h 21.65 V 849.473 h -21.65 z m 115.69,0 h 19.84 v 89.269 l -1.78,40.368 0.59,0.593 59.96,-130.23 h 24.58 V 986.23 h -19.83 v -89.55 l 1.77,-40.086 -0.59,-0.594 -59.96,130.23 H 4240.9 V 831.711"
       style="fill:#0b3b6a;fill-opacity:1;fill-rule:nonzero;stroke:none"
       transform="matrix(0.13333333,0,0,-0.13333333,0,188.97333)" />
  </g>
</svg>
